<svg width="109" height="87" viewBox="0 0 109 87" fill="none" xmlns="http://www.w3.org/2000/svg">
<path d="M0.421875 6.4375C0.421875 5.54688 0.703125 4.83594 1.26562 4.30469C1.84375 3.75781 2.57031 3.48438 3.44531 3.48438C3.89844 3.48438 4.35156 3.49219 4.80469 3.50781C5.27344 3.50781 5.73438 3.50781 6.1875 3.50781C7.5625 3.50781 8.70312 3.40625 9.60938 3.20312C10.5156 3 11.5938 2.63281 12.8438 2.10156C13.4062 1.85156 13.9766 1.63281 14.5547 1.44531C15.1484 1.25781 15.7578 1.16406 16.3828 1.16406C17.2578 1.16406 17.9219 1.40625 18.375 1.89062C18.8281 2.375 19.0547 3.05469 19.0547 3.92969V23.2891C19.0547 23.9766 19.3125 24.4609 19.8281 24.7422C20.3438 25.0078 20.9766 25.1875 21.7266 25.2812C22.4766 25.375 23.2266 25.4922 23.9766 25.6328C24.7422 25.7734 25.3828 26.0469 25.8984 26.4531C26.4141 26.8438 26.6719 27.4922 26.6719 28.3984C26.6719 29.2734 26.4297 29.9297 25.9453 30.3672C25.4609 30.7891 24.7891 31 23.9297 31H2.97656C2.13281 31 1.45312 30.7891 0.9375 30.3672C0.4375 29.9297 0.1875 29.2734 0.1875 28.3984C0.1875 27.4297 0.46875 26.75 1.03125 26.3594C1.59375 25.9531 2.28125 25.6875 3.09375 25.5625C3.92188 25.4375 4.74219 25.3438 5.55469 25.2812C6.38281 25.2031 7.07812 25.0312 7.64062 24.7656C8.20312 24.5 8.48438 24.0078 8.48438 23.2891V11.8047C8.48438 10.9453 8.32031 10.3203 7.99219 9.92969C7.66406 9.52344 7.05469 9.32031 6.16406 9.32031C5.83594 9.32031 5.50781 9.33594 5.17969 9.36719C4.85156 9.38281 4.52344 9.39062 4.19531 9.39062C3.13281 9.39062 2.23438 9.21094 1.5 8.85156C0.78125 8.47656 0.421875 7.67188 0.421875 6.4375Z" fill="#FF0000"/>
<path d="M41.2266 26.4531C41.2266 25.25 41.4844 24.25 42 23.4531C42.5156 22.6406 43.1875 22.0078 44.0156 21.5547L43.9688 21.5078L44.2031 21.4375C45.1094 20.9844 46.1641 20.7109 47.3672 20.6172L47.4141 20.5938C47.7422 20.5156 48.0859 20.375 48.4453 20.1719C48.8047 19.9531 49.125 19.75 49.4062 19.5625C50.8438 18.625 51.9141 17.6641 52.6172 16.6797C53.3359 15.6797 53.8125 14.5625 54.0469 13.3281C54.2812 12.0938 54.3984 10.6641 54.3984 9.03906C54.3984 8.77344 54.3906 8.375 54.375 7.84375C54.3594 7.29688 54.3047 6.73438 54.2109 6.15625C54.1172 5.5625 53.9609 5.0625 53.7422 4.65625C53.5234 4.23438 53.2188 4.02344 52.8281 4.02344C52.3281 4.02344 51.9688 4.1875 51.75 4.51562C51.5469 4.84375 51.4219 5.23438 51.375 5.6875C51.3438 6.125 51.3281 6.52344 51.3281 6.88281V9.36719C51.3281 10.8359 50.9062 12.0391 50.0625 12.9766C49.2344 13.8984 48.0625 14.3594 46.5469 14.3594C44.9219 14.3594 43.7344 13.8047 42.9844 12.6953C42.2344 11.5703 41.8594 10.2734 41.8594 8.80469C41.8594 7.22656 42.2188 5.89844 42.9375 4.82031C43.6562 3.74219 44.6016 2.88281 45.7734 2.24219C46.9453 1.58594 48.2188 1.11719 49.5938 0.835938C50.9844 0.539062 52.3359 0.390625 53.6484 0.390625C55.1172 0.390625 56.5469 0.539062 57.9375 0.835938C59.3281 1.13281 60.5781 1.625 61.6875 2.3125C62.8125 2.98438 63.7031 3.89844 64.3594 5.05469C65.0312 6.19531 65.3672 7.625 65.3672 9.34375C65.3672 11.0625 64.9766 12.5703 64.1953 13.8672C63.4141 15.1641 62.3906 16.2891 61.125 17.2422C59.875 18.1953 58.5469 19.0312 57.1406 19.75C56.7031 19.9688 56.2656 20.1797 55.8281 20.3828C55.4062 20.5859 54.9688 20.7734 54.5156 20.9453C55.4219 21.0234 56.3281 21.0938 57.2344 21.1562C58.1562 21.2188 59.0781 21.25 60 21.25C60.9688 21.25 61.7266 21.1016 62.2734 20.8047C62.8359 20.4922 63.2891 20.1406 63.6328 19.75C63.9922 19.3594 64.3281 19.0156 64.6406 18.7188C64.9531 18.4062 65.3438 18.25 65.8125 18.25C66.5156 18.25 66.9531 18.5781 67.125 19.2344C67.2969 19.875 67.3828 20.4609 67.3828 20.9922C67.3828 21.1328 67.375 21.2812 67.3594 21.4375C67.3594 21.5781 67.3516 21.7188 67.3359 21.8594C67.2422 23.0781 67.0547 24.2891 66.7734 25.4922C66.5078 26.6797 66.0859 27.7656 65.5078 28.75C64.9297 29.7188 64.1562 30.4922 63.1875 31.0703C62.2188 31.6641 61 31.9609 59.5312 31.9609C58.0938 31.9609 56.7969 31.6094 55.6406 30.9062C54.5 30.2031 53.7109 29.1328 53.2734 27.6953C53.1797 27.3984 53.1016 27.1016 53.0391 26.8047C52.9766 26.5078 52.7344 26.3594 52.3125 26.3594C51.9219 26.3594 51.6562 26.5234 51.5156 26.8516C51.3906 27.1641 51.2891 27.4688 51.2109 27.7656C50.7734 29.375 50.1875 30.4688 49.4531 31.0469C48.7188 31.6406 47.5078 31.9375 45.8203 31.9375C44.2578 31.9375 43.1016 31.375 42.3516 30.25C41.6016 29.125 41.2266 27.8594 41.2266 26.4531Z" fill="#0000FF"/>
<path d="M107.836 22.0703C107.836 23.9141 107.438 25.4688 106.641 26.7344C105.859 28 104.82 29.0156 103.523 29.7812C102.227 30.5312 100.789 31.0781 99.2109 31.4219C97.6484 31.7656 96.0859 31.9375 94.5234 31.9375C93.3828 31.9375 92.125 31.8438 90.75 31.6562C89.375 31.4844 88.0625 31.1562 86.8125 30.6719C85.5625 30.1719 84.5312 29.4609 83.7188 28.5391C82.9219 27.6016 82.5234 26.3906 82.5234 24.9062C82.5234 23.4688 82.9766 22.2188 83.8828 21.1562C84.8047 20.0938 86.0156 19.5625 87.5156 19.5625C88.9844 19.5625 90.1094 19.9844 90.8906 20.8281C91.6875 21.6719 92.0859 22.8125 92.0859 24.25V26.4766C92.0859 27.1484 92.3828 27.625 92.9766 27.9062C93.5859 28.1875 94.1641 28.3281 94.7109 28.3281C95.5859 28.3281 96.25 28.0859 96.7031 27.6016C97.1719 27.1016 97.4922 26.4922 97.6641 25.7734C97.8359 25.0547 97.9219 24.3438 97.9219 23.6406C97.9219 22.2969 97.7266 21.3203 97.3359 20.7109C96.9609 20.0859 96.4688 19.6875 95.8594 19.5156C95.25 19.3438 94.6016 19.2656 93.9141 19.2812C93.2266 19.2969 92.5781 19.2812 91.9688 19.2344C91.3594 19.1875 90.8594 18.9844 90.4688 18.625C90.0938 18.2656 89.9062 17.6094 89.9062 16.6562C89.9062 16.0625 90.0391 15.4844 90.3047 14.9219C90.5703 14.3438 90.9375 13.875 91.4062 13.5156L96.0234 10.0234H91.2422C90.4453 10.0234 89.8906 10.1406 89.5781 10.375C89.2812 10.5938 88.9766 11.0625 88.6641 11.7812C88.3672 12.5 88.0703 13.1641 87.7734 13.7734C87.4922 14.3672 86.8672 14.6641 85.8984 14.6641C85.1484 14.6641 84.5625 14.4375 84.1406 13.9844C83.7188 13.5312 83.5078 12.9375 83.5078 12.2031L84.1875 4.30469C84.2656 3.33594 84.625 2.60156 85.2656 2.10156C85.9062 1.60156 86.6953 1.35156 87.6328 1.35156H105.352C106.227 1.35156 106.914 1.63281 107.414 2.19531C107.914 2.74219 108.164 3.44531 108.164 4.30469C108.164 5.02344 107.938 5.66406 107.484 6.22656C107.047 6.77344 106.594 7.28125 106.125 7.75C106.031 7.84375 105.938 7.9375 105.844 8.03125C105.766 8.125 105.672 8.21094 105.562 8.28906L97.6875 14.0078C97.875 13.9922 98.0781 13.9844 98.2969 13.9844C99.9219 13.9844 101.461 14.2891 102.914 14.8984C104.367 15.5078 105.547 16.4141 106.453 17.6172C107.375 18.8047 107.836 20.2891 107.836 22.0703Z" fill="#63D903"/>
<path d="M27.6094 83.3984C27.6094 82.4766 27.8047 81.8438 28.1953 81.5C28.5859 81.1406 29.0469 80.8906 29.5781 80.75C30.1094 80.5938 30.5859 80.3828 31.0078 80.1172C31.4297 79.8516 31.6719 79.3516 31.7344 78.6172H22.5234C21.6641 78.6172 21.0312 78.3359 20.625 77.7734C20.2188 77.1953 20.0156 76.5156 20.0156 75.7344C20.0156 75.1094 20.1953 74.4688 20.5547 73.8125C20.9141 73.1406 21.3359 72.6172 21.8203 72.2422C22.4297 71.7734 23.0547 71.3203 23.6953 70.8828C24.3359 70.4453 24.9609 69.9922 25.5703 69.5234C25.9141 69.2578 26.2812 68.875 26.6719 68.375C27.0781 67.8594 27.4219 67.3203 27.7031 66.7578C28 66.1797 28.1484 65.6719 28.1484 65.2344C28.1484 64.6094 28.0156 64.0156 27.75 63.4531C27.5 62.8906 27.2422 62.3203 26.9766 61.7422C26.7266 61.1484 26.6016 60.5156 26.6016 59.8438C26.6016 57.9531 27.2266 56.5859 28.4766 55.7422C29.7422 54.8984 31.2266 54.4766 32.9297 54.4766C34.5547 54.4766 35.875 54.8984 36.8906 55.7422C37.9219 56.5703 38.4375 57.8359 38.4375 59.5391C38.4375 60.4922 38.2109 61.4219 37.7578 62.3281C37.3203 63.2188 36.7656 64.0547 36.0938 64.8359C35.4375 65.6172 34.7734 66.3125 34.1016 66.9219L26.5312 73.8125H31.7812C31.8281 73.4062 31.9219 73.0078 32.0625 72.6172C32.2031 72.2266 32.4219 71.8828 32.7188 71.5859L38.0391 66.125C38.3359 65.8125 38.6641 65.5156 39.0234 65.2344C39.3984 64.9375 39.8125 64.7891 40.2656 64.7891C40.8594 64.7891 41.2422 65.0078 41.4141 65.4453C41.6016 65.8828 41.6953 66.3438 41.6953 66.8281L41.7422 73.8125H43.5938C44.3281 73.8125 44.9062 74 45.3281 74.375C45.75 74.75 45.9609 75.3125 45.9609 76.0625C45.9609 76.8906 45.7812 77.5234 45.4219 77.9609C45.0625 78.3984 44.4453 78.6172 43.5703 78.6172H41.7891C41.8672 79.2266 42.0938 79.6875 42.4688 80C42.8438 80.3125 43.2578 80.5938 43.7109 80.8438C44.1797 81.0781 44.5781 81.3828 44.9062 81.7578C45.25 82.1172 45.4219 82.6641 45.4219 83.3984C45.4219 85.1328 44.5781 86 42.8906 86H30.1406C28.4531 86 27.6094 85.1328 27.6094 83.3984Z" fill="#FF00BF"/>
<path d="M62.1562 80.0703C62.1562 78.6172 62.6094 77.3359 63.5156 76.2266C64.4219 75.1172 65.6406 74.5625 67.1719 74.5625C68.6094 74.5625 69.7188 75 70.5 75.875C71.2812 76.7344 71.6719 77.8672 71.6719 79.2734V81.5C71.6719 82.125 71.9141 82.5859 72.3984 82.8828C72.8984 83.1797 73.4219 83.3281 73.9688 83.3281C74.8125 83.3281 75.4219 83.1016 75.7969 82.6484C76.1875 82.1953 76.4297 81.6328 76.5234 80.9609C76.6172 80.2734 76.6641 79.6094 76.6641 78.9688C76.6641 77.9062 76.5391 76.9219 76.2891 76.0156C76.0547 75.1094 75.6094 74.375 74.9531 73.8125C74.2969 73.25 73.3438 72.9688 72.0938 72.9688H69.0938C68.6719 73.1562 68.2266 73.3438 67.7578 73.5312C67.2891 73.7031 66.8203 73.7891 66.3516 73.7891C65.6484 73.7891 65.1172 73.5781 64.7578 73.1562C64.3984 72.7344 64.2188 72.1875 64.2188 71.5156V59.6797C64.2188 58.5703 64.4688 57.6719 64.9688 56.9844C65.4844 56.2969 66.3359 55.9531 67.5234 55.9531C67.9609 55.9531 68.3906 55.9844 68.8125 56.0469C69.25 56.1094 69.6797 56.1797 70.1016 56.2578C72.6797 56.7266 75.2734 56.9609 77.8828 56.9609C78.8672 56.9609 79.875 56.9219 80.9062 56.8438C81.9531 56.75 82.9375 56.5156 83.8594 56.1406C84.0938 56.0469 84.3203 55.9453 84.5391 55.8359C84.7734 55.7109 85.0156 55.6484 85.2656 55.6484C85.8594 55.6484 86.2578 55.8672 86.4609 56.3047C86.6797 56.7422 86.7891 57.2109 86.7891 57.7109C86.7891 59.8984 86.2891 61.6406 85.2891 62.9375C84.2891 64.2188 82.9609 65.1406 81.3047 65.7031C79.6641 66.2656 77.875 66.5469 75.9375 66.5469C74.7188 66.5469 73.5078 66.4688 72.3047 66.3125C71.1016 66.1406 69.9062 65.9141 68.7188 65.6328V68.8906C69.7656 68.4219 70.8438 68.1094 71.9531 67.9531C73.0781 67.7812 74.2422 67.6953 75.4453 67.6953C77.3828 67.6953 79.1953 68.0312 80.8828 68.7031C82.5859 69.3594 83.9609 70.3828 85.0078 71.7734C86.0547 73.1484 86.5781 74.9062 86.5781 77.0469C86.5781 78.9219 86.1953 80.5 85.4297 81.7812C84.6641 83.0469 83.6328 84.0625 82.3359 84.8281C81.0547 85.5781 79.625 86.1172 78.0469 86.4453C76.4844 86.7734 74.9062 86.9375 73.3125 86.9375C72.2188 86.9375 71.0234 86.8438 69.7266 86.6562C68.4453 86.4688 67.2266 86.125 66.0703 85.625C64.9297 85.125 63.9922 84.4297 63.2578 83.5391C62.5234 82.6328 62.1562 81.4766 62.1562 80.0703Z" fill="#FBFF00"/>
</svg>
