<svg width="93" height="91" viewBox="0 0 93 91" fill="none" xmlns="http://www.w3.org/2000/svg">
<path d="M0.539062 29.6094C0.539062 28.1719 0.875 26.9766 1.54688 26.0234C2.21875 25.0547 3.09375 24.2812 4.17188 23.7031C5.26562 23.1094 6.44531 22.6875 7.71094 22.4375C8.97656 22.1875 10.1953 22.0625 11.3672 22.0625C11.7109 22.0625 12.0625 22.0703 12.4219 22.0859C12.7812 22.0859 13.1328 22.1172 13.4766 22.1797V16.0859C13.4766 15.6953 13.3906 15.2422 13.2188 14.7266C13.0625 14.2109 12.7344 13.9531 12.2344 13.9531C11.75 13.9531 11.4453 14.1562 11.3203 14.5625C11.2109 14.9531 11.1562 15.3281 11.1562 15.6875C11.1562 15.8438 11.1562 16.0078 11.1562 16.1797C11.1719 16.3359 11.1797 16.5 11.1797 16.6719C11.1797 18.2812 10.625 19.4141 9.51562 20.0703C8.40625 20.7109 7.14062 21.0312 5.71875 21.0312C4.53125 21.0312 3.5 20.7656 2.625 20.2344C1.75 19.7031 1.3125 18.7656 1.3125 17.4219C1.3125 16.8906 1.41406 16.375 1.61719 15.875C1.83594 15.375 2.10938 14.9297 2.4375 14.5391C3.39062 13.3828 4.58594 12.5 6.02344 11.8906C7.47656 11.2812 9 10.8672 10.5938 10.6484C12.2031 10.4141 13.7109 10.2969 15.1172 10.2969C16.7109 10.2969 18.1719 10.5234 19.5 10.9766C20.8281 11.4297 21.8906 12.1875 22.6875 13.25C23.4844 14.2969 23.8828 15.7109 23.8828 17.4922V28.2969C23.8828 28.5625 23.9453 28.7969 24.0703 29C24.1953 29.2031 24.4062 29.3047 24.7031 29.3047C24.9375 29.3047 25.1328 29.2344 25.2891 29.0938C25.4609 28.9375 25.6641 28.8594 25.8984 28.8594C26.3516 28.8594 26.6875 29.0156 26.9062 29.3281C27.1406 29.6406 27.2578 30.0078 27.2578 30.4297C27.2578 31.5234 26.9219 32.4688 26.25 33.2656C25.5938 34.0469 24.7734 34.6406 23.7891 35.0469C22.8047 35.4688 21.8125 35.6797 20.8125 35.6797C19.6406 35.6797 18.4531 35.4219 17.25 34.9062C16.0625 34.3906 15.2422 33.5859 14.7891 32.4922C13.9922 33.6016 12.8984 34.4141 11.5078 34.9297C10.1328 35.4297 8.78125 35.6797 7.45312 35.6797C6.23438 35.6797 5.09375 35.4531 4.03125 35C2.98438 34.5312 2.14062 33.8438 1.5 32.9375C0.859375 32.0312 0.539062 30.9219 0.539062 29.6094ZM11.1094 27.5469C11.1094 28.1719 11.2578 28.7656 11.5547 29.3281C11.8516 29.875 12.3594 30.1484 13.0781 30.1484C13.2188 30.1484 13.3516 30.1328 13.4766 30.1016V25.25C13.2109 25.1406 12.9375 25.0859 12.6562 25.0859C12.0625 25.0859 11.6562 25.3828 11.4375 25.9766C11.2188 26.5547 11.1094 27.0781 11.1094 27.5469Z" fill="#FF0000"/>
<path d="M63.375 19.5078C63.375 20.8984 62.9609 21.9531 62.1328 22.6719C61.3203 23.3906 60.2422 23.75 58.8984 23.75H49.4531C49.8125 25.0938 50.4531 26.2266 51.375 27.1484C52.2969 28.0547 53.625 28.5078 55.3594 28.5078C56.0469 28.5078 56.7266 28.3672 57.3984 28.0859C58.0859 27.7891 58.7266 27.4453 59.3203 27.0547C59.9297 26.6641 60.4609 26.3281 60.9141 26.0469C61.3672 25.75 61.7109 25.6016 61.9453 25.6016C62.3984 25.6016 62.7266 25.7656 62.9297 26.0938C63.1328 26.4062 63.2344 26.7656 63.2344 27.1719C63.2344 28.5938 62.8984 29.8438 62.2266 30.9219C61.5703 31.9844 60.6953 32.8672 59.6016 33.5703C58.5234 34.2734 57.3359 34.7969 56.0391 35.1406C54.7578 35.5 53.4922 35.6797 52.2422 35.6797C49.7891 35.6797 47.625 35.1719 45.75 34.1562C43.875 33.1406 42.4062 31.7188 41.3438 29.8906C40.2969 28.0469 39.7734 25.8828 39.7734 23.3984C39.7734 20.7422 40.2812 18.4297 41.2969 16.4609C42.3281 14.4922 43.8047 12.9688 45.7266 11.8906C47.6484 10.7969 49.9531 10.25 52.6406 10.25C54.5 10.25 56.2422 10.6016 57.8672 11.3047C59.5078 12.0078 60.8359 13.0469 61.8516 14.4219C62.8672 15.7969 63.375 17.4922 63.375 19.5078ZM49.0312 20.1406C49.0312 20.3125 49.0312 20.4844 49.0312 20.6562H51.4688C52.0625 20.6562 52.4688 20.5234 52.6875 20.2578C52.9062 19.9766 53.0156 19.5547 53.0156 18.9922C53.0156 18.6172 52.9688 18.125 52.875 17.5156C52.7812 16.9062 52.5938 16.3594 52.3125 15.875C52.0469 15.3906 51.6562 15.1484 51.1406 15.1484C50.6719 15.1484 50.2969 15.3438 50.0156 15.7344C49.7344 16.1094 49.5234 16.5859 49.3828 17.1641C49.2422 17.7266 49.1484 18.2812 49.1016 18.8281C49.0547 19.375 49.0312 19.8125 49.0312 20.1406Z" fill="#08AA08"/>
<path d="M88.3359 10.25C88.9766 10.25 89.4688 10.4688 89.8125 10.9062C90.1719 11.3438 90.3516 11.8672 90.3516 12.4766V27.9453C90.3516 28.3828 90.3672 28.8281 90.3984 29.2812C90.4453 29.7188 90.625 30.1016 90.9375 30.4297C91.3438 30.8672 91.6797 31.2109 91.9453 31.4609C92.2266 31.7109 92.3672 32.1797 92.3672 32.8672C92.3672 33.5547 92.1484 34.0859 91.7109 34.4609C91.2891 34.8203 90.7422 35 90.0703 35H80.1094C79.4375 35 78.8828 34.8203 78.4453 34.4609C78.0234 34.1016 77.8125 33.5703 77.8125 32.8672C77.8125 32.1953 77.9453 31.7266 78.2109 31.4609C78.4766 31.1797 78.8203 30.8359 79.2422 30.4297C79.5547 30.1172 79.7266 29.7266 79.7578 29.2578C79.8047 28.7891 79.8281 28.3516 79.8281 27.9453V19.7656C79.8281 19.4531 79.8047 19.1328 79.7578 18.8047C79.7109 18.4609 79.5781 18.1719 79.3594 17.9375C79.2969 17.8594 79.2188 17.7969 79.125 17.75C79.0469 17.7031 78.9766 17.6484 78.9141 17.5859C78.5703 17.2266 78.25 16.9375 77.9531 16.7188C77.6719 16.4844 77.5312 16.0781 77.5312 15.5C77.5312 14.875 77.7266 14.3906 78.1172 14.0469C78.5078 13.7031 78.9688 13.4297 79.5 13.2266L84.5625 11.1875C85.1562 10.9531 85.7734 10.7422 86.4141 10.5547C87.0547 10.3516 87.6953 10.25 88.3359 10.25ZM84.8203 10.1562C83.8203 10.1562 82.8125 10.0078 81.7969 9.71094C80.7812 9.41406 79.9297 8.92188 79.2422 8.23438C78.5703 7.53125 78.2344 6.58594 78.2344 5.39844C78.2344 4.21094 78.5781 3.28125 79.2656 2.60938C79.9531 1.92188 80.8047 1.4375 81.8203 1.15625C82.8359 0.875 83.8359 0.734375 84.8203 0.734375C85.8047 0.734375 86.8047 0.875 87.8203 1.15625C88.8516 1.4375 89.7109 1.92188 90.3984 2.60938C91.1016 3.28125 91.4531 4.21094 91.4531 5.39844C91.4531 6.60156 91.1094 7.55469 90.4219 8.25781C89.7344 8.94531 88.875 9.4375 87.8438 9.73438C86.8281 10.0156 85.8203 10.1562 84.8203 10.1562Z" fill="#072DFF"/>
<path d="M24.4453 65.25C27.0234 65.25 29.2812 65.7812 31.2188 66.8438C33.1719 67.9062 34.6953 69.3984 35.7891 71.3203C36.8828 73.2422 37.4297 75.5 37.4297 78.0938C37.4297 80.6406 36.8281 82.8594 35.625 84.75C34.4219 86.625 32.8047 88.0859 30.7734 89.1328C28.7578 90.1641 26.5156 90.6797 24.0469 90.6797C21.4531 90.6797 19.1797 90.1484 17.2266 89.0859C15.2734 88.0078 13.75 86.5 12.6562 84.5625C11.5781 82.6094 11.0391 80.3359 11.0391 77.7422C11.0391 75.2109 11.6484 73.0078 12.8672 71.1328C14.0859 69.2578 15.7109 67.8125 17.7422 66.7969C19.7734 65.7656 22.0078 65.25 24.4453 65.25ZM25.7812 85.5C26.1719 85.5 26.4453 85.2969 26.6016 84.8906C26.7734 84.4844 26.8828 84.0391 26.9297 83.5547C26.9766 83.0547 27 82.6719 27 82.4062C27 81.5156 26.9297 80.6328 26.7891 79.7578C26.6484 78.8672 26.4688 77.9922 26.25 77.1328C26.1719 76.7891 26.0234 76.2578 25.8047 75.5391C25.5859 74.8047 25.3203 74.0391 25.0078 73.2422C24.6953 72.4453 24.3516 71.7656 23.9766 71.2031C23.6016 70.6406 23.2031 70.3594 22.7812 70.3594C22.4219 70.3594 22.1562 70.5625 21.9844 70.9688C21.8281 71.375 21.7266 71.8281 21.6797 72.3281C21.6328 72.8125 21.6094 73.1797 21.6094 73.4297C21.6094 73.8516 21.6719 74.5312 21.7969 75.4688C21.9219 76.3906 22.1016 77.4219 22.3359 78.5625C22.5859 79.7031 22.8828 80.8047 23.2266 81.8672C23.5703 82.9141 23.9531 83.7812 24.375 84.4688C24.8125 85.1562 25.2812 85.5 25.7812 85.5Z" fill="#FFBF00"/>
<path d="M60.4219 90.6797C58.9375 90.6797 57.6953 90.3047 56.6953 89.5547C55.7109 88.7891 54.9766 87.7969 54.4922 86.5781C54.0078 85.3594 53.7656 84.0781 53.7656 82.7344V74.7656C53.7656 74.1875 53.7188 73.7812 53.625 73.5469C53.5312 73.2969 53.2656 72.9766 52.8281 72.5859C52.4844 72.2734 52.1562 71.9844 51.8438 71.7188C51.5469 71.4375 51.3984 71.0312 51.3984 70.5C51.3984 69.8906 51.5938 69.4141 51.9844 69.0703C52.3906 68.7109 52.8516 68.4297 53.3672 68.2266L58.5234 66.1875C59.1328 65.9375 59.7422 65.7188 60.3516 65.5312C60.9766 65.3438 61.625 65.25 62.2969 65.25C62.9375 65.25 63.4297 65.4766 63.7734 65.9297C64.1172 66.3672 64.2891 66.8828 64.2891 67.4766V80.2031C64.2891 80.6406 64.3359 81.1094 64.4297 81.6094C64.5391 82.1094 64.7422 82.5391 65.0391 82.8984C65.3359 83.2422 65.7656 83.4141 66.3281 83.4141C66.9062 83.4141 67.4141 83.2891 67.8516 83.0391C68.2891 82.7734 68.6875 82.4531 69.0469 82.0781V74.7656C69.0469 74.1719 68.9922 73.7422 68.8828 73.4766C68.7891 73.1953 68.5 72.8672 68.0156 72.4922C67.6562 72.2109 67.3438 71.9375 67.0781 71.6719C66.8125 71.4062 66.6797 71.0156 66.6797 70.5C66.6797 69.8906 66.875 69.4141 67.2656 69.0703C67.6719 68.7109 68.1328 68.4297 68.6484 68.2266L73.8047 66.1875C74.4141 65.9375 75.0234 65.7188 75.6328 65.5312C76.2578 65.3438 76.9062 65.25 77.5781 65.25C78.2188 65.25 78.7109 65.4688 79.0547 65.9062C79.4141 66.3438 79.5938 66.8672 79.5938 67.4766V82.9453C79.5938 83.3828 79.6094 83.8203 79.6406 84.2578C79.6875 84.6797 79.8672 85.0703 80.1797 85.4297C80.5703 85.8516 80.9141 86.2031 81.2109 86.4844C81.5078 86.7656 81.6562 87.2266 81.6562 87.8672C81.6562 88.5703 81.4453 89.1016 81.0234 89.4609C80.6016 89.8203 80.0469 90 79.3594 90H74.0156C72.8281 90 71.7812 89.5547 70.875 88.6641C69.9844 87.7734 69.5391 86.7422 69.5391 85.5703C68.6797 86.3984 67.7422 87.2031 66.7266 87.9844C65.7109 88.7656 64.6641 89.4141 63.5859 89.9297C62.5234 90.4297 61.4688 90.6797 60.4219 90.6797Z" fill="#FF0ABA"/>
</svg>
